<?xml version="1.0" encoding="UTF-8"?>
<svg fill="none" viewBox="0 0 50 50" xmlns="http://www.w3.org/2000/svg">
<g filter="url(#h)" stroke="#4C4CFF" stroke-linecap="round" stroke-linejoin="round">
<path d="m40.513 37.633c0.5006-0.6135 0.0494-1.4933-0.7423-1.5063-10.106-0.1664-18.559 0.0204-29.012 0.6564-0.79078 0.0482-1.203 0.9479-0.675 1.5385 3.6632 4.0984 8.9906 6.6783 14.921 6.6783 6.2556 0 11.841-2.8709 15.509-7.3669z"/>
<path d="m7.6427 15.058c-0.39034 0.6799 0.18474 1.4715 0.96313 1.3781 11.567-1.388 20.092-1.8019 32.182-1.0657 0.7867 0.0479 1.3162-0.783 0.8794-1.439-3.5847-5.3837-9.7098-8.9313-16.664-8.9313-7.4282 0-13.911 4.048-17.361 10.058z"/>
</g>
<g filter="url(#g)" stroke="#4C4CFF" stroke-linecap="round" stroke-linejoin="round">
<path d="m40.513 37.633c0.5006-0.6135 0.0494-1.4933-0.7423-1.5063-10.106-0.1664-18.559 0.0204-29.012 0.6564-0.79078 0.0482-1.203 0.9479-0.675 1.5385 3.6632 4.0984 8.9906 6.6783 14.921 6.6783 6.2556 0 11.841-2.8709 15.509-7.3669z"/>
<path d="m7.6427 15.058c-0.39034 0.6799 0.18474 1.4715 0.96313 1.3781 11.567-1.388 20.092-1.8019 32.182-1.0657 0.7867 0.0479 1.3162-0.783 0.8794-1.439-3.5847-5.3837-9.7098-8.9313-16.664-8.9313-7.4282 0-13.911 4.048-17.361 10.058z"/>
</g>
<path d="m40.513 37.633c0.5006-0.6135 0.0494-1.4933-0.7423-1.5063-10.106-0.1664-18.559 0.0204-29.012 0.6564-0.79078 0.0482-1.203 0.9479-0.675 1.5385 3.6632 4.0984 8.9906 6.6783 14.921 6.6783 6.2556 0 11.841-2.8709 15.509-7.3669z" stroke="#4C4CFF" stroke-linecap="round" stroke-linejoin="round"/>
<path d="m7.6427 15.058c-0.39034 0.6799 0.18474 1.4715 0.96313 1.3781 11.567-1.388 20.092-1.8019 32.182-1.0657 0.7867 0.0479 1.3162-0.783 0.8794-1.439-3.5847-5.3837-9.7098-8.9313-16.664-8.9313-7.4282 0-13.911 4.048-17.361 10.058z" stroke="#4C4CFF" stroke-linecap="round" stroke-linejoin="round"/>
<path d="m40.513 37.633c0.5006-0.6135 0.0494-1.4933-0.7423-1.5063-10.106-0.1664-18.559 0.0204-29.012 0.6564-0.79078 0.0482-1.203 0.9479-0.675 1.5385 3.6632 4.0984 8.9906 6.6783 14.921 6.6783 6.2556 0 11.841-2.8709 15.509-7.3669z" stroke="#fff" stroke-linecap="round" stroke-linejoin="round" stroke-width=".5"/>
<path d="m7.6427 15.058c-0.39034 0.6799 0.18474 1.4715 0.96313 1.3781 11.567-1.388 20.092-1.8019 32.182-1.0657 0.7867 0.0479 1.3162-0.783 0.8794-1.439-3.5847-5.3837-9.7098-8.9313-16.664-8.9313-7.4282 0-13.911 4.048-17.361 10.058z" stroke="#fff" stroke-linecap="round" stroke-linejoin="round" stroke-width=".5"/>
<g filter="url(#f)">
<path d="m44.859 27.466c0.1285-1.0523-0.6873-1.9541-1.744-2.0392-12.88-1.0381-22.931-1.2013-36.226-0.5019-1.0592 0.0557-1.9001 0.9351-1.8006 1.9911 0.14131 1.4989 0.44809 2.9498 0.90188 4.334 0.26151 0.7977 1.0406 1.2912 1.8796 1.2622 12.513-0.4335 22.19-0.465 34.325-0.1371 0.8395 0.0226 1.6151-0.4771 1.8703-1.2772 0.3724-1.1677 0.6404-2.382 0.7932-3.6319z" stroke="#E33CD5" stroke-linecap="round" stroke-linejoin="round"/>
</g>
<g filter="url(#e)">
<path d="m44.859 27.466c0.1285-1.0523-0.6873-1.9541-1.744-2.0392-12.88-1.0381-22.931-1.2013-36.226-0.5019-1.0592 0.0557-1.9001 0.9351-1.8006 1.9911 0.14131 1.4989 0.44809 2.9498 0.90188 4.334 0.26151 0.7977 1.0406 1.2912 1.8796 1.2622 12.513-0.4335 22.19-0.465 34.325-0.1371 0.8395 0.0226 1.6151-0.4771 1.8703-1.2772 0.3724-1.1677 0.6404-2.382 0.7932-3.6319z" stroke="#E33CD5" stroke-linecap="round" stroke-linejoin="round"/>
</g>
<path d="m44.859 27.466c0.1285-1.0523-0.6873-1.9541-1.744-2.0392-12.88-1.0381-22.931-1.2013-36.226-0.5019-1.0592 0.0557-1.9001 0.9351-1.8006 1.9911 0.14131 1.4989 0.44809 2.9498 0.90188 4.334 0.26151 0.7977 1.0406 1.2912 1.8796 1.2622 12.513-0.4335 22.19-0.465 34.325-0.1371 0.8395 0.0226 1.6151-0.4771 1.8703-1.2772 0.3724-1.1677 0.6404-2.382 0.7932-3.6319z" stroke="#E33CD5" stroke-linecap="round" stroke-linejoin="round"/>
<path d="m44.859 27.466c0.1285-1.0523-0.6873-1.9541-1.744-2.0392-12.88-1.0381-22.931-1.2013-36.226-0.5019-1.0592 0.0557-1.9001 0.9351-1.8006 1.9911 0.14131 1.4989 0.44809 2.9498 0.90188 4.334 0.26151 0.7977 1.0406 1.2912 1.8796 1.2622 12.513-0.4335 22.19-0.465 34.325-0.1371 0.8395 0.0226 1.6151-0.4771 1.8703-1.2772 0.3724-1.1677 0.6404-2.382 0.7932-3.6319z" stroke="#fff" stroke-linecap="round" stroke-linejoin="round" stroke-width=".5"/>
<g filter="url(#d)">
<path d="m5 20.5c2.6667-2 5.3333-2 8 0s5.3333 2 8 0 5.3333-2 8 0 5.3333 2 8 0 5.3333-2 8 0" stroke="#0cc" stroke-linecap="round" stroke-linejoin="round"/>
</g>
<g filter="url(#c)">
<path d="m5 20.5c2.6667-2 5.3333-2 8 0s5.3333 2 8 0 5.3333-2 8 0 5.3333 2 8 0 5.3333-2 8 0" stroke="#0cc" stroke-linecap="round" stroke-linejoin="round"/>
</g>
<path d="m5 20.5c2.6667-2 5.3333-2 8 0s5.3333 2 8 0 5.3333-2 8 0 5.3333 2 8 0 5.3333-2 8 0" stroke="#0cc" stroke-linecap="round" stroke-linejoin="round"/>
<path d="m5 20.5c2.6667-2 5.3333-2 8 0s5.3333 2 8 0 5.3333-2 8 0 5.3333 2 8 0 5.3333-2 8 0" stroke="#fff" stroke-linecap="round" stroke-linejoin="round" stroke-width=".5"/>
<g filter="url(#b)" stroke="#4C4CFF">
<ellipse transform="matrix(.88549 .46466 .46466 -.88549 18.234 39.981)" rx="1" ry=".75"/>
<ellipse transform="rotate(15 33.708 11.354)" cx="33.708" cy="11.354" rx="1.5" ry="1"/>
<ellipse transform="matrix(.96593 -.25882 -.25882 -.96593 31.16 39.983)" rx="1" ry=".75"/>
<ellipse transform="rotate(180 23.5 12)" cx="23.5" cy="12" rx="1.5" ry="1"/>
<ellipse transform="rotate(15 27.708 8.3542)" cx="27.708" cy="8.3542" rx="1.5" ry="1"/>
<ellipse transform="matrix(1 0 0 -1 25 41.75)" rx="1" ry=".75"/>
<ellipse transform="rotate(-27.688 16.793 10.583)" cx="16.793" cy="10.583" rx="1.5" ry="1"/>
</g>
<g filter="url(#a)" stroke="#4C4CFF">
<ellipse transform="matrix(.88549 .46466 .46466 -.88549 18.234 39.981)" rx="1" ry=".75"/>
<ellipse transform="rotate(15 33.708 11.354)" cx="33.708" cy="11.354" rx="1.5" ry="1"/>
<ellipse transform="matrix(.96593 -.25882 -.25882 -.96593 31.16 39.983)" rx="1" ry=".75"/>
<ellipse transform="rotate(180 23.5 12)" cx="23.5" cy="12" rx="1.5" ry="1"/>
<ellipse transform="rotate(15 27.708 8.3542)" cx="27.708" cy="8.3542" rx="1.5" ry="1"/>
<ellipse transform="matrix(1 0 0 -1 25 41.75)" rx="1" ry=".75"/>
<ellipse transform="rotate(-27.688 16.793 10.583)" cx="16.793" cy="10.583" rx="1.5" ry="1"/>
</g>
<ellipse transform="matrix(.88549 .46466 .46466 -.88549 18.234 39.981)" rx="1" ry=".75" stroke="#4C4CFF"/>
<ellipse transform="rotate(15 33.708 11.354)" cx="33.708" cy="11.354" rx="1.5" ry="1" stroke="#4C4CFF"/>
<ellipse transform="matrix(.96593 -.25882 -.25882 -.96593 31.16 39.983)" rx="1" ry=".75" stroke="#4C4CFF"/>
<ellipse transform="rotate(180 23.5 12)" cx="23.5" cy="12" rx="1.5" ry="1" stroke="#4C4CFF"/>
<ellipse transform="rotate(15 27.708 8.3542)" cx="27.708" cy="8.3542" rx="1.5" ry="1" stroke="#4C4CFF"/>
<ellipse transform="matrix(1 0 0 -1 25 41.75)" rx="1" ry=".75" stroke="#4C4CFF"/>
<ellipse transform="rotate(-27.688 16.793 10.583)" cx="16.793" cy="10.583" rx="1.5" ry="1" stroke="#4C4CFF"/>
<ellipse transform="matrix(.88549 .46466 .46466 -.88549 18.234 39.981)" rx="1" ry=".75" stroke="#fff" stroke-width=".5"/>
<ellipse transform="rotate(15 33.708 11.354)" cx="33.708" cy="11.354" rx="1.5" ry="1" stroke="#fff" stroke-width=".5"/>
<ellipse transform="matrix(.96593 -.25882 -.25882 -.96593 31.16 39.983)" rx="1" ry=".75" stroke="#fff" stroke-width=".5"/>
<ellipse transform="rotate(180 23.5 12)" cx="23.5" cy="12" rx="1.5" ry="1" stroke="#fff" stroke-width=".5"/>
<ellipse transform="rotate(15 27.708 8.3542)" cx="27.708" cy="8.3542" rx="1.5" ry="1" stroke="#fff" stroke-width=".5"/>
<ellipse transform="matrix(1 0 0 -1 25 41.75)" rx="1" ry=".75" stroke="#fff" stroke-width=".5"/>
<ellipse transform="rotate(-27.688 16.793 10.583)" cx="16.793" cy="10.583" rx="1.5" ry="1" stroke="#fff" stroke-width=".5"/>
<defs>
<filter id="h" x="3.0121" y=".5" width="43.319" height="49" color-interpolation-filters="sRGB" filterUnits="userSpaceOnUse">
<feFlood flood-opacity="0" result="BackgroundImageFix"/>
<feBlend in="SourceGraphic" in2="BackgroundImageFix" result="shape"/>
<feGaussianBlur result="effect1_foregroundBlur_6291_3907" stdDeviation="2"/>
</filter>
<filter id="g" x="3.0121" y=".5" width="43.319" height="49" color-interpolation-filters="sRGB" filterUnits="userSpaceOnUse">
<feFlood flood-opacity="0" result="BackgroundImageFix"/>
<feBlend in="SourceGraphic" in2="BackgroundImageFix" result="shape"/>
<feGaussianBlur result="effect1_foregroundBlur_6291_3907" stdDeviation="2"/>
</filter>
<filter id="f" x=".58093" y="20" width="48.792" height="17.013" color-interpolation-filters="sRGB" filterUnits="userSpaceOnUse">
<feFlood flood-opacity="0" result="BackgroundImageFix"/>
<feBlend in="SourceGraphic" in2="BackgroundImageFix" result="shape"/>
<feGaussianBlur result="effect1_foregroundBlur_6291_3907" stdDeviation="2"/>
</filter>
<filter id="e" x=".58093" y="20" width="48.792" height="17.013" color-interpolation-filters="sRGB" filterUnits="userSpaceOnUse">
<feFlood flood-opacity="0" result="BackgroundImageFix"/>
<feBlend in="SourceGraphic" in2="BackgroundImageFix" result="shape"/>
<feGaussianBlur result="effect1_foregroundBlur_6291_3907" stdDeviation="2"/>
</filter>
<filter id="d" x=".5" y="14.5" width="49" height="12" color-interpolation-filters="sRGB" filterUnits="userSpaceOnUse">
<feFlood flood-opacity="0" result="BackgroundImageFix"/>
<feBlend in="SourceGraphic" in2="BackgroundImageFix" result="shape"/>
<feGaussianBlur result="effect1_foregroundBlur_6291_3907" stdDeviation="2"/>
</filter>
<filter id="c" x=".5" y="14.5" width="49" height="12" color-interpolation-filters="sRGB" filterUnits="userSpaceOnUse">
<feFlood flood-opacity="0" result="BackgroundImageFix"/>
<feBlend in="SourceGraphic" in2="BackgroundImageFix" result="shape"/>
<feGaussianBlur result="effect1_foregroundBlur_6291_3907" stdDeviation="2"/>
</filter>
<filter id="b" x="10.885" y="2.8127" width="28.795" height="44.187" color-interpolation-filters="sRGB" filterUnits="userSpaceOnUse">
<feFlood flood-opacity="0" result="BackgroundImageFix"/>
<feBlend in="SourceGraphic" in2="BackgroundImageFix" result="shape"/>
<feGaussianBlur result="effect1_foregroundBlur_6291_3907" stdDeviation="2"/>
</filter>
<filter id="a" x="10.885" y="2.8127" width="28.795" height="44.187" color-interpolation-filters="sRGB" filterUnits="userSpaceOnUse">
<feFlood flood-opacity="0" result="BackgroundImageFix"/>
<feBlend in="SourceGraphic" in2="BackgroundImageFix" result="shape"/>
<feGaussianBlur result="effect1_foregroundBlur_6291_3907" stdDeviation="2"/>
</filter>
</defs>
</svg>
